<svg xmlns="http://www.w3.org/2000/svg" width="512" height="512" viewBox="0 0 512 512">
  <defs>
    <linearGradient id="sky" x1="0" y1="0" x2="0" y2="1">
      <stop offset="0" stop-color="#8fd3ff"/>
      <stop offset="1" stop-color="#cfeeff"/>
    </linearGradient>
    <linearGradient id="sea" x1="0" y1="0" x2="0" y2="1">
      <stop offset="0" stop-color="#3a86c8"/>
      <stop offset="1" stop-color="#1f5e8b"/>
    </linearGradient>
  </defs>
  <rect width="512" height="512" rx="104" fill="url(#sky)"/>
  <circle cx="384" cy="132" r="46" fill="#ffd23f"/>
  <path d="M0 304 Q128 274 256 304 T512 304 V512 H0 Z" fill="url(#sea)"/>
  <path d="M0 372 Q64 352 128 372 T256 372 T384 372 T512 372" fill="none" stroke="rgba(255,255,255,0.55)" stroke-width="11" stroke-linecap="round"/>
  <rect x="249" y="170" width="14" height="150" rx="7" fill="#6b4a26"/>
  <path d="M268 178 L268 300 L356 300 Z" fill="#fbf7ee"/>
  <path d="M244 178 L244 300 L158 300 Z" fill="#f1e7cf"/>
  <path d="M146 312 L366 312 L332 388 L180 388 Z" fill="#8a5e30"/>
  <rect x="146" y="304" width="220" height="16" rx="8" fill="#b07a43"/>
</svg>
